<svg id="Capa_1" enable-background="new 0 0 512.008 512.008" height="512" viewBox="0 0 512.008 512.008" width="512" xmlns="http://www.w3.org/2000/svg"><g><path d="m475.339 133.737c-10.163-13.496-19.935-21.742-37.993-40.189l36.892-37.126c5.84-5.877 5.809-15.374-.067-21.214-5.877-5.839-15.375-5.808-21.214.067l-36.821 37.055c-12.546-12.233-28.471-29.569-39.945-37.242-62.869-46.703-150.228-47.388-214.157 1.576-19.492 14.929-32.746 36.67-37.08 60.872l-72.238 72.265c-35.448 35.462-52.69 73.774-52.712 117.123-.035 69.688 45.678 132.236 38.413 169.036-2.066 10.464 7.162 19.682 17.624 17.621 36.769-7.271 99.217 38.427 168.969 38.427 43.338-.021 81.638-17.271 117.089-52.735l71.946-71.972c24.264-4.223 46.215-17.422 61.34-37.184 48.749-63.698 48.917-152.468-.046-216.38zm-53.821 220.519c-12.861 4.897-26.153 5.652-38.655 2.982v-59.918h38.655zm-108.787-51.56v-5.375h40.131v45.16c-4.371-3.708-2.787-2.566-40.131-39.785zm-100.134-214.375v39.42h-57.962c-2.586-13.578-1.016-27.129 4.157-39.42zm-29.42-30c9.292-6.763 19.17-12.294 29.421-16.608v16.608zm129.554 138.841v-39.421h40.131v39.421zm40.131 30v40.159h-40.131v-40.159zm-70.132-30h-40.131v-39.421h40.131zm100.133-39.421h38.655v39.421h-38.655zm68.656 0h4.185c8.463 12.253 14.899 25.56 19.269 39.421h-23.455v-39.421zm-30.001-30h-38.655v-39.42h6.837l31.817 31.829v7.591zm-68.656-69.42h-40.131v-21.935c14.092 4.207 27.641 10.539 40.131 18.949zm0 30v39.42h-40.131v-39.42zm-70.132 39.42h-40.131v-39.42h40.131zm-70.133 30v39.421h-5.36c-34.126-34.329-34.603-34.166-38.807-39.421zm30.002 69.421h40.131v40.159h-5.36l-34.771-34.784zm140.264 40.159v-40.159h38.655v40.159zm68.656-40.159h29.606c1.337 13.352.88 26.871-1.403 40.159h-28.204v-40.159zm-168.789-196.459v27.618h-40.131v-25.615c13.696-2.568 27.051-3.117 40.131-2.003zm38.15 407.361c-94.181 94.217-180.586 8.709-251.834 4.889-3.825-71.478-89.392-157.627 4.889-251.942l52.372-52.392c4.461 18.004 13.722 33.746 25.954 45.982 21.74 21.748 155.609 155.668 175.226 175.293 12.542 12.546 28.293 21.53 45.65 25.895zm130.639-106.13v-34.613h19.717c-5.062 12.609-11.794 24.298-19.717 34.613z"/></g></svg>