<?xml version="1.0" encoding="UTF-8" standalone="no"?>
<!DOCTYPE svg PUBLIC "-//W3C//DTD SVG 1.1//EN" "http://www.w3.org/Graphics/SVG/1.1/DTD/svg11.dtd">
<svg version="1.1" xmlns="http://www.w3.org/2000/svg" xmlns:xlink="http://www.w3.org/1999/xlink" preserveAspectRatio="xMidYMid meet" viewBox="-0.9960201505599962 -0.9999030203638384 132 132" width="128" height="128"><defs><path d="M109.34 23.39C110.26 22.46 117.64 15.03 118.56 14.11C120.02 12.64 120.01 10.26 118.55 8.8C117.08 7.34 114.7 7.35 113.24 8.82C112.32 9.75 104.96 17.16 104.04 18.08C100.9 15.02 96.92 10.69 94.05 8.77C78.33 -2.9 56.49 -3.07 40.51 9.17C35.64 12.9 32.32 18.33 31.24 24.38C29.44 26.19 14.99 40.64 13.18 42.45C4.32 51.32 0.01 60.89 0 71.73C0 89.15 11.42 104.79 9.61 113.99C9.09 116.6 11.4 118.91 14.01 118.39C23.21 116.58 38.82 128 56.26 128C67.09 127.99 76.66 123.68 85.53 114.82C87.33 113.02 101.72 98.62 103.51 96.82C109.58 95.77 115.07 92.47 118.85 87.53C131.04 71.6 131.08 49.41 118.84 33.43C116.3 30.06 113.85 28 109.34 23.39ZM105.38 88.56C102.17 89.79 98.84 89.98 95.72 89.31C95.72 88.31 95.72 83.32 95.72 74.33L105.38 74.33C105.38 81.92 105.38 86.66 105.38 88.56ZM78.19 74.33L88.22 74.33C88.22 81.1 88.22 84.87 88.22 85.62C87.13 84.69 87.52 84.98 78.19 75.67C78.19 75.49 78.19 75.05 78.19 74.33ZM53.15 22.08L53.15 31.93C44.46 31.93 39.63 31.93 38.66 31.93C38.02 28.54 38.41 25.15 39.7 22.08C41.49 22.08 45.98 22.08 53.15 22.08ZM45.8 14.58C48.12 12.89 50.59 11.51 53.15 10.43C53.15 10.7 53.15 12.09 53.15 14.58C49.23 14.58 46.78 14.58 45.8 14.58ZM78.19 49.29L78.19 39.43L88.22 39.43L88.22 49.29L78.19 49.29ZM88.22 56.79L88.22 66.83L78.19 66.83L78.19 56.79L88.22 56.79ZM70.69 49.29L60.65 49.29L60.65 39.43L70.69 39.43L70.69 49.29ZM95.72 39.43L105.38 39.43L105.38 49.29L95.72 49.29L95.72 39.43ZM113.93 39.43C116.04 42.5 117.65 45.82 118.75 49.29C118.36 49.29 116.4 49.29 112.88 49.29L112.88 39.43C113.51 39.43 113.86 39.43 113.93 39.43ZM95.72 31.93L95.72 22.08L97.43 22.08L105.38 30.04L105.38 31.93L95.72 31.93ZM88.22 14.58L78.19 14.58C78.19 11.29 78.19 9.46 78.19 9.1C81.71 10.15 85.1 11.73 88.22 13.83C88.22 13.93 88.22 14.18 88.22 14.58ZM88.22 22.08L88.22 31.93L78.19 31.93L78.19 22.08L88.22 22.08ZM70.69 31.93L60.65 31.93L60.65 22.08L70.69 22.08L70.69 31.93ZM53.15 39.43L53.15 49.29C52.35 49.29 51.9 49.29 51.81 49.29C43.28 40.71 43.16 40.75 42.11 39.43C43.58 39.43 47.26 39.43 53.15 39.43ZM60.65 56.79L70.69 56.79L70.69 66.83L69.35 66.83L60.65 58.13L60.65 56.79ZM95.72 66.83L95.72 56.79L105.38 56.79L105.38 66.83L95.72 66.83ZM120.28 56.79C120.62 60.13 120.5 63.51 119.93 66.83C119.46 66.83 117.11 66.83 112.88 66.83L112.88 56.79C117.32 56.79 119.79 56.79 120.28 56.79ZM70.69 14.58L60.65 14.58C60.65 10.74 60.65 8.6 60.65 8.18C64.08 7.53 67.42 7.4 70.69 7.68C70.69 8.6 70.69 10.9 70.69 14.58ZM80.22 109.51C56.68 133.07 35.08 111.69 17.26 110.74C16.31 92.87 -5.08 71.33 18.49 47.75C19.8 46.44 30.27 35.96 31.58 34.65C32.69 39.16 35.01 43.09 38.07 46.15C43.5 51.59 76.97 85.07 81.87 89.97C85.01 93.11 88.95 95.35 93.29 96.45C90.67 99.06 82.84 106.9 80.22 109.51ZM112.88 74.33C115.84 74.33 117.48 74.33 117.81 74.33C116.55 77.48 114.86 80.4 112.88 82.98C112.88 81.83 112.88 78.94 112.88 74.33Z" id="b1QQEzscRr"></path></defs><g><g><use xlink:href="#b1QQEzscRr" opacity="1" fill="#000000" fill-opacity="1"></use><g><use xlink:href="#b1QQEzscRr" opacity="1" fill-opacity="0" stroke="#000000" stroke-width="1" stroke-opacity="0"></use></g></g></g></svg>