<?xml version="1.0" encoding="UTF-8" standalone="no"?>
<!DOCTYPE svg PUBLIC "-//W3C//DTD SVG 1.1//EN" "http://www.w3.org/Graphics/SVG/1.1/DTD/svg11.dtd">
<svg version="1.1" xmlns="http://www.w3.org/2000/svg" xmlns:xlink="http://www.w3.org/1999/xlink" preserveAspectRatio="xMidYMid meet" viewBox="-0.9960201505599962 -0.9999030203638384 20 20" width="16" height="16"><defs><path d="M13.67 2.92C13.79 2.81 14.71 1.88 14.82 1.76C15.01 1.58 15.01 1.28 14.82 1.1C14.64 0.92 14.34 0.92 14.16 1.1C14.04 1.22 13.12 2.14 13.01 2.26C12.62 1.88 12.12 1.34 11.76 1.1C9.8 -0.36 7.07 -0.38 5.07 1.15C4.46 1.61 4.04 2.29 3.91 3.05C3.68 3.27 1.88 5.08 1.65 5.31C0.54 6.41 0 7.61 0 8.97C0 11.14 1.43 13.1 1.2 14.25C1.14 14.58 1.43 14.86 1.76 14.8C2.9 14.57 4.86 16 7.04 16C8.39 16 9.59 15.46 10.69 14.35C10.92 14.13 12.72 12.33 12.94 12.1C13.7 11.97 14.39 11.56 14.86 10.94C16.38 8.95 16.39 6.18 14.86 4.18C14.54 3.76 14.24 3.5 13.67 2.92ZM13.18 11.07C12.77 11.22 12.36 11.25 11.97 11.16C11.97 11.04 11.97 10.41 11.97 9.29L13.18 9.29C13.18 10.24 13.18 10.83 13.18 11.07ZM9.78 9.29L11.03 9.29C11.03 10.14 11.03 10.61 11.03 10.7C10.89 10.59 10.94 10.62 9.78 9.46C9.78 9.44 9.78 9.38 9.78 9.29ZM6.65 2.76L6.65 3.99C5.56 3.99 4.96 3.99 4.84 3.99C4.76 3.57 4.8 3.14 4.97 2.76C5.19 2.76 5.75 2.76 6.65 2.76ZM5.73 1.82C6.02 1.61 6.33 1.44 6.65 1.3C6.65 1.34 6.65 1.51 6.65 1.82C6.16 1.82 5.85 1.82 5.73 1.82ZM9.78 6.16L9.78 4.93L11.03 4.93L11.03 6.16L9.78 6.16ZM11.03 7.1L11.03 8.35L9.78 8.35L9.78 7.1L11.03 7.1ZM8.84 6.16L7.59 6.16L7.59 4.93L8.84 4.93L8.84 6.16ZM11.97 4.93L13.18 4.93L13.18 6.16L11.97 6.16L11.97 4.93ZM14.24 4.93C14.51 5.31 14.71 5.73 14.85 6.16C14.8 6.16 14.55 6.16 14.11 6.16L14.11 4.93C14.19 4.93 14.24 4.93 14.24 4.93ZM11.97 3.99L11.97 2.76L12.18 2.76L13.18 3.75L13.18 3.99L11.97 3.99ZM11.03 1.82L9.78 1.82C9.78 1.41 9.78 1.18 9.78 1.14C10.22 1.27 10.64 1.47 11.03 1.73C11.03 1.74 11.03 1.77 11.03 1.82ZM11.03 2.76L11.03 3.99L9.78 3.99L9.78 2.76L11.03 2.76ZM8.84 3.99L7.59 3.99L7.59 2.76L8.84 2.76L8.84 3.99ZM6.65 4.93L6.65 6.16C6.55 6.16 6.49 6.16 6.48 6.16C5.41 5.09 5.4 5.09 5.27 4.93C5.45 4.93 5.91 4.93 6.65 4.93ZM7.59 7.1L8.84 7.1L8.84 8.35L8.67 8.35L7.59 7.27L7.59 7.1ZM11.97 8.35L11.97 7.1L13.18 7.1L13.18 8.35L11.97 8.35ZM15.04 7.1C15.08 7.52 15.07 7.94 15 8.35C14.94 8.35 14.64 8.35 14.11 8.35L14.11 7.1C14.67 7.1 14.98 7.1 15.04 7.1ZM8.84 1.82L7.59 1.82C7.59 1.34 7.59 1.08 7.59 1.02C8.01 0.94 8.43 0.92 8.84 0.96C8.84 1.07 8.84 1.36 8.84 1.82ZM10.03 13.69C7.09 16.63 4.39 13.96 2.16 13.84C2.04 11.61 -0.63 8.92 2.31 5.97C2.48 5.81 3.79 4.5 3.95 4.33C4.09 4.89 4.38 5.39 4.76 5.77C5.44 6.45 9.62 10.63 10.24 11.25C10.63 11.64 11.12 11.92 11.66 12.06C11.34 12.38 10.36 13.36 10.03 13.69ZM14.11 9.29C14.48 9.29 14.69 9.29 14.73 9.29C14.57 9.69 14.36 10.05 14.11 10.37C14.11 10.23 14.11 9.87 14.11 9.29Z" id="a1s5xGIsmL"></path></defs><g><g><use xlink:href="#a1s5xGIsmL" opacity="1" fill="#000000" fill-opacity="1"></use><g><use xlink:href="#a1s5xGIsmL" opacity="1" fill-opacity="0" stroke="#000000" stroke-width="1" stroke-opacity="0"></use></g></g></g></svg>