<?xml version="1.0" encoding="UTF-8" standalone="no"?>
<!DOCTYPE svg PUBLIC "-//W3C//DTD SVG 1.1//EN" "http://www.w3.org/Graphics/SVG/1.1/DTD/svg11.dtd">
<svg version="1.1" xmlns="http://www.w3.org/2000/svg" xmlns:xlink="http://www.w3.org/1999/xlink" preserveAspectRatio="xMidYMid meet" viewBox="-0.9960201505599962 -0.9999030203638393 52 52" width="48" height="48"><defs><path d="M41 8.77C41.35 8.42 44.12 5.64 44.46 5.29C45.01 4.74 45.01 3.85 44.46 3.3C43.91 2.75 43.02 2.76 42.47 3.31C42.12 3.65 39.36 6.43 39.02 6.78C37.84 5.63 36.35 4.01 35.27 3.29C29.38 -1.09 21.19 -1.15 15.19 3.44C13.37 4.84 12.12 6.88 11.72 9.14C11.04 9.82 5.62 15.24 4.95 15.92C1.62 19.24 0.01 22.83 0 26.9C0 33.43 4.29 39.3 3.61 42.75C3.41 43.73 4.28 44.59 5.26 44.4C8.7 43.72 14.56 48 21.1 48C25.16 48 28.75 46.38 32.08 43.06C32.75 42.38 38.15 36.98 38.82 36.31C41.1 35.91 43.15 34.68 44.57 32.82C49.14 26.85 49.16 18.53 44.57 12.54C43.61 11.27 42.7 10.5 41 8.77ZM39.52 33.21C38.32 33.67 37.07 33.74 35.9 33.49C35.9 33.12 35.9 31.24 35.9 27.87L39.52 27.87C39.52 30.72 39.52 32.5 39.52 33.21ZM29.32 27.87L33.08 27.87C33.08 30.41 33.08 31.82 33.08 32.11C32.67 31.76 32.82 31.87 29.32 28.38C29.32 28.31 29.32 28.14 29.32 27.87ZM19.93 8.28L19.93 11.98C16.67 11.98 14.86 11.98 14.5 11.98C14.26 10.7 14.41 9.43 14.89 8.28C15.56 8.28 17.24 8.28 19.93 8.28ZM17.18 5.47C18.05 4.83 18.97 4.32 19.93 3.91C19.93 4.01 19.93 4.53 19.93 5.47C18.46 5.47 17.54 5.47 17.18 5.47ZM29.32 18.48L29.32 14.79L33.08 14.79L33.08 18.48L29.32 18.48ZM33.08 21.3L33.08 25.06L29.32 25.06L29.32 21.3L33.08 21.3ZM26.51 18.48L22.75 18.48L22.75 14.79L26.51 14.79L26.51 18.48ZM35.9 14.79L39.52 14.79L39.52 18.48L35.9 18.48L35.9 14.79ZM42.73 14.79C43.52 15.94 44.12 17.18 44.53 18.48C44.39 18.48 43.65 18.48 42.33 18.48L42.33 14.79C42.57 14.79 42.7 14.79 42.73 14.79ZM35.9 11.98L35.9 8.28L36.54 8.28L39.52 11.26L39.52 11.98L35.9 11.98ZM33.08 5.47L29.32 5.47C29.32 4.23 29.32 3.55 29.32 3.41C30.64 3.81 31.91 4.4 33.08 5.19C33.08 5.22 33.08 5.32 33.08 5.47ZM33.08 8.28L33.08 11.98L29.32 11.98L29.32 8.28L33.08 8.28ZM26.51 11.98L22.75 11.98L22.75 8.28L26.51 8.28L26.51 11.98ZM19.93 14.79L19.93 18.48C19.63 18.48 19.47 18.48 19.43 18.48C16.23 15.27 16.19 15.28 15.79 14.79C16.35 14.79 17.73 14.79 19.93 14.79ZM22.75 21.3L26.51 21.3L26.51 25.06L26.01 25.06L22.75 21.8L22.75 21.3ZM35.9 25.06L35.9 21.3L39.52 21.3L39.52 25.06L35.9 25.06ZM45.11 21.3C45.23 22.55 45.19 23.82 44.98 25.06C44.8 25.06 43.92 25.06 42.33 25.06L42.33 21.3C44 21.3 44.92 21.3 45.11 21.3ZM26.51 5.47L22.75 5.47C22.75 4.03 22.75 3.23 22.75 3.07C24.03 2.83 25.28 2.77 26.51 2.88C26.51 3.22 26.51 4.09 26.51 5.47ZM30.09 41.07C21.26 49.9 13.16 41.88 6.48 41.53C6.12 34.83 -1.9 26.75 6.94 17.91C7.43 17.42 11.35 13.49 11.84 13C12.26 14.68 13.13 16.16 14.28 17.31C16.32 19.35 28.87 31.9 30.71 33.74C31.88 34.92 33.36 35.76 34.99 36.17C34.01 37.15 31.07 40.09 30.09 41.07ZM42.33 27.87C43.44 27.87 44.06 27.87 44.18 27.87C43.71 29.06 43.08 30.15 42.33 31.12C42.33 30.69 42.33 29.6 42.33 27.87Z" id="a3xhEawBt5"></path></defs><g><g><use xlink:href="#a3xhEawBt5" opacity="1" fill="#000000" fill-opacity="1"></use><g><use xlink:href="#a3xhEawBt5" opacity="1" fill-opacity="0" stroke="#000000" stroke-width="1" stroke-opacity="0"></use></g></g></g></svg>